<svg width="137" height="80" viewBox="0 0 137 80" fill="none" xmlns="http://www.w3.org/2000/svg">
<path d="M5.632 64V19.2H25.408C28.48 19.2 31.0827 19.648 33.216 20.544C35.3493 21.3973 36.9493 22.656 38.016 24.32C39.1253 25.9413 39.68 27.904 39.68 30.208C39.68 32.768 39.04 34.9227 37.76 36.672C36.5227 38.4213 34.7093 39.5947 32.32 40.192L32.192 38.976C34.1973 39.4027 35.9253 40.1493 37.376 41.216C38.8693 42.2827 40.0213 43.6053 40.832 45.184C41.6427 46.72 42.048 48.4693 42.048 50.432C42.048 52.6933 41.664 54.6773 40.896 56.384C40.128 58.048 39.0187 59.456 37.568 60.608C36.1173 61.76 34.4107 62.6133 32.448 63.168C30.528 63.7227 28.3947 64 26.048 64H5.632ZM15.872 54.912H25.664C26.8587 54.912 27.8613 54.72 28.672 54.336C29.5253 53.952 30.1867 53.3973 30.656 52.672C31.1253 51.904 31.36 50.9867 31.36 49.92C31.36 48.9387 31.104 48.1067 30.592 47.424C30.1227 46.7413 29.44 46.2293 28.544 45.888C27.648 45.504 26.5813 45.312 25.344 45.312H15.872V54.912ZM15.872 37.184H23.872C24.9813 37.184 25.92 37.0133 26.688 36.672C27.4987 36.288 28.096 35.776 28.48 35.136C28.9067 34.4533 29.12 33.6427 29.12 32.704C29.12 31.3387 28.6507 30.272 27.712 29.504C26.7733 28.6933 25.3653 28.288 23.488 28.288H15.872V37.184ZM50.507 64V19.2H69.259C72.5443 19.2 75.5523 19.7547 78.283 20.864C81.0137 21.9307 83.3603 23.4667 85.323 25.472C87.3283 27.4773 88.8643 29.8453 89.931 32.576C90.9977 35.3067 91.531 38.3147 91.531 41.6C91.531 44.8853 90.9977 47.9147 89.931 50.688C88.8643 53.4187 87.3283 55.7867 85.323 57.792C83.3603 59.7547 81.0137 61.2907 78.283 62.4C75.5523 63.4667 72.5443 64 69.259 64H50.507ZM61.387 56.576L59.915 54.4H68.939C70.731 54.4 72.331 54.1013 73.739 53.504C75.147 52.864 76.3417 51.9893 77.323 50.88C78.347 49.7707 79.1363 48.4267 79.691 46.848C80.2457 45.2693 80.523 43.52 80.523 41.6C80.523 39.68 80.2457 37.9307 79.691 36.352C79.1363 34.7733 78.347 33.4293 77.323 32.32C76.3417 31.2107 75.147 30.3573 73.739 29.76C72.331 29.12 70.731 28.8 68.939 28.8H59.723L61.387 26.752V56.576ZM99.9445 64V19.2H119.273C122.089 19.2 124.585 19.84 126.761 21.12C128.979 22.4 130.729 24.1493 132.009 26.368C133.331 28.5867 133.993 31.0827 133.993 33.856C133.993 36.7573 133.331 39.36 132.009 41.664C130.729 43.9253 128.979 45.7173 126.761 47.04C124.585 48.3627 122.089 49.024 119.273 49.024H110.825V64H99.9445ZM110.633 39.488H117.737C118.675 39.488 119.529 39.2533 120.297 38.784C121.065 38.3147 121.683 37.6747 122.153 36.864C122.622 36.0533 122.857 35.1147 122.857 34.048C122.857 32.9387 122.622 32 122.153 31.232C121.683 30.464 121.065 29.8667 120.297 29.44C119.529 29.0133 118.675 28.8 117.737 28.8H110.633V39.488Z" fill="white"/>
<path d="M6.144 77V67.9H10.07C10.642 67.9 11.149 68.03 11.591 68.29C12.0417 68.55 12.397 68.9053 12.657 69.356C12.9257 69.8067 13.06 70.3137 13.06 70.877C13.06 71.4663 12.9257 71.995 12.657 72.463C12.397 72.9223 12.0417 73.2863 11.591 73.555C11.149 73.8237 10.642 73.958 10.07 73.958H8.354V77H6.144ZM8.315 72.021H9.758C9.94867 72.021 10.122 71.9733 10.278 71.878C10.434 71.7827 10.5597 71.6527 10.655 71.488C10.7503 71.3233 10.798 71.1327 10.798 70.916C10.798 70.6907 10.7503 70.5 10.655 70.344C10.5597 70.188 10.434 70.0667 10.278 69.98C10.122 69.8933 9.94867 69.85 9.758 69.85H8.315V72.021ZM17.6535 77.13C16.9341 77.13 16.2928 76.974 15.7295 76.662C15.1748 76.35 14.7328 75.9253 14.4035 75.388C14.0828 74.8507 13.9225 74.2353 13.9225 73.542C13.9225 72.8487 14.0828 72.2333 14.4035 71.696C14.7328 71.1587 15.1748 70.734 15.7295 70.422C16.2928 70.11 16.9341 69.954 17.6535 69.954C18.3728 69.954 19.0098 70.11 19.5645 70.422C20.1278 70.734 20.5698 71.1587 20.8905 71.696C21.2111 72.2333 21.3715 72.8487 21.3715 73.542C21.3715 74.2353 21.2111 74.8507 20.8905 75.388C20.5698 75.9253 20.1278 76.35 19.5645 76.662C19.0098 76.974 18.3728 77.13 17.6535 77.13ZM17.6535 75.336C17.9655 75.336 18.2428 75.258 18.4855 75.102C18.7281 74.946 18.9188 74.7337 19.0575 74.465C19.1961 74.1963 19.2611 73.8887 19.2525 73.542C19.2611 73.1953 19.1961 72.8877 19.0575 72.619C18.9188 72.3417 18.7281 72.125 18.4855 71.969C18.2428 71.813 17.9655 71.735 17.6535 71.735C17.3415 71.735 17.0598 71.813 16.8085 71.969C16.5658 72.125 16.3751 72.3417 16.2365 72.619C16.0978 72.8877 16.0328 73.1953 16.0415 73.542C16.0328 73.8887 16.0978 74.1963 16.2365 74.465C16.3751 74.7337 16.5658 74.946 16.8085 75.102C17.0598 75.258 17.3415 75.336 17.6535 75.336ZM25.0586 77.13C24.3826 77.13 23.7846 77.0217 23.2646 76.805C22.7533 76.5883 22.3459 76.298 22.0426 75.934L23.3036 74.842C23.5723 75.1107 23.8756 75.31 24.2136 75.44C24.5516 75.5613 24.8723 75.622 25.1756 75.622C25.2969 75.622 25.4053 75.609 25.5006 75.583C25.5959 75.557 25.6739 75.5223 25.7346 75.479C25.8039 75.427 25.8559 75.3707 25.8906 75.31C25.9253 75.2407 25.9426 75.1627 25.9426 75.076C25.9426 74.9027 25.8646 74.7683 25.7086 74.673C25.6306 74.6297 25.5006 74.5777 25.3186 74.517C25.1366 74.4563 24.9026 74.387 24.6166 74.309C24.2093 74.205 23.8539 74.0837 23.5506 73.945C23.2559 73.7977 23.0133 73.6287 22.8226 73.438C22.6493 73.256 22.5149 73.0567 22.4196 72.84C22.3243 72.6147 22.2766 72.3633 22.2766 72.086C22.2766 71.7653 22.3503 71.475 22.4976 71.215C22.6536 70.955 22.8573 70.7297 23.1086 70.539C23.3686 70.3483 23.6633 70.2053 23.9926 70.11C24.3306 70.006 24.6773 69.954 25.0326 69.954C25.4139 69.954 25.7779 69.9973 26.1246 70.084C26.4713 70.1707 26.7919 70.292 27.0866 70.448C27.3899 70.604 27.6586 70.7903 27.8926 71.007L26.8006 72.229C26.6446 72.0817 26.4669 71.9517 26.2676 71.839C26.0769 71.7177 25.8776 71.6223 25.6696 71.553C25.4616 71.4837 25.2709 71.449 25.0976 71.449C24.9676 71.449 24.8506 71.462 24.7466 71.488C24.6513 71.5053 24.5689 71.54 24.4996 71.592C24.4303 71.6353 24.3783 71.6917 24.3436 71.761C24.3089 71.8217 24.2916 71.8953 24.2916 71.982C24.2916 72.0687 24.3133 72.151 24.3566 72.229C24.4086 72.307 24.4779 72.372 24.5646 72.424C24.6513 72.476 24.7899 72.5367 24.9806 72.606C25.1713 72.6667 25.4313 72.7447 25.7606 72.84C26.1679 72.9527 26.5189 73.0783 26.8136 73.217C27.1083 73.3557 27.3423 73.5203 27.5156 73.711C27.6543 73.8583 27.7583 74.0317 27.8276 74.231C27.8969 74.4217 27.9316 74.6297 27.9316 74.855C27.9316 75.297 27.8059 75.6913 27.5546 76.038C27.3119 76.376 26.9739 76.6447 26.5406 76.844C26.1073 77.0347 25.6133 77.13 25.0586 77.13ZM29.7401 77V68.355H31.8201V77H29.7401ZM28.5181 71.917V70.097H33.1591V71.917H28.5181ZM36.7008 77.143C36.1895 77.143 35.7518 77.0347 35.3878 76.818C35.0325 76.5927 34.7551 76.272 34.5558 75.856C34.3651 75.44 34.2698 74.9417 34.2698 74.361V70.097H36.3628V74.075C36.3628 74.3523 36.4061 74.5907 36.4928 74.79C36.5795 74.9893 36.7095 75.1453 36.8828 75.258C37.0561 75.362 37.2641 75.414 37.5068 75.414C37.6888 75.414 37.8535 75.3837 38.0008 75.323C38.1568 75.2623 38.2868 75.18 38.3908 75.076C38.5035 74.9633 38.5901 74.8377 38.6508 74.699C38.7115 74.5517 38.7418 74.3913 38.7418 74.218V70.097H40.8348V77H38.8718L38.7808 75.583L39.1708 75.427C39.0668 75.7563 38.8935 76.051 38.6508 76.311C38.4081 76.5623 38.1178 76.766 37.7798 76.922C37.4418 77.0693 37.0821 77.143 36.7008 77.143ZM42.6886 77V70.097H44.6646L44.7556 72.346L44.3656 71.917C44.4696 71.5443 44.6386 71.2107 44.8726 70.916C45.1153 70.6213 45.397 70.3873 45.7176 70.214C46.0383 70.0407 46.3806 69.954 46.7446 69.954C46.9006 69.954 47.0436 69.967 47.1736 69.993C47.3123 70.019 47.438 70.0493 47.5506 70.084L46.9786 72.385C46.8833 72.3243 46.7533 72.2767 46.5886 72.242C46.4326 72.1987 46.268 72.177 46.0946 72.177C45.904 72.177 45.7263 72.2117 45.5616 72.281C45.397 72.3417 45.2583 72.4327 45.1456 72.554C45.033 72.6753 44.942 72.8183 44.8726 72.983C44.812 73.1477 44.7816 73.334 44.7816 73.542V77H42.6886ZM51.6016 77.13C50.839 77.13 50.176 76.9783 49.6126 76.675C49.0493 76.363 48.6116 75.9427 48.2996 75.414C47.9876 74.8767 47.8316 74.2657 47.8316 73.581C47.8316 73.0523 47.9183 72.567 48.0916 72.125C48.265 71.683 48.5076 71.3017 48.8196 70.981C49.1316 70.6517 49.5 70.4003 49.9246 70.227C50.358 70.045 50.8303 69.954 51.3416 69.954C51.827 69.954 52.269 70.0407 52.6676 70.214C53.075 70.3873 53.426 70.63 53.7206 70.942C54.0153 71.254 54.2406 71.6223 54.3966 72.047C54.5526 72.4717 54.622 72.9353 54.6046 73.438L54.5916 73.997H49.0926L48.7936 72.827H52.9016L52.6806 73.074V72.814C52.6633 72.5973 52.594 72.4067 52.4726 72.242C52.36 72.0687 52.2083 71.9343 52.0176 71.839C51.827 71.7437 51.6103 71.696 51.3676 71.696C51.0296 71.696 50.7393 71.7653 50.4966 71.904C50.2626 72.034 50.085 72.229 49.9636 72.489C49.8423 72.7403 49.7816 73.0523 49.7816 73.425C49.7816 73.8063 49.8596 74.14 50.0156 74.426C50.1803 74.7033 50.4143 74.92 50.7176 75.076C51.0296 75.232 51.398 75.31 51.8226 75.31C52.1173 75.31 52.3773 75.2667 52.6026 75.18C52.8366 75.0933 53.088 74.946 53.3566 74.738L54.3316 76.116C54.063 76.35 53.777 76.5407 53.4736 76.688C53.1703 76.8353 52.8583 76.9437 52.5376 77.013C52.2256 77.091 51.9136 77.13 51.6016 77.13ZM64.4489 77.13C63.7642 77.13 63.1316 77.0173 62.5509 76.792C61.9789 76.558 61.4806 76.233 61.0559 75.817C60.6312 75.3923 60.3019 74.894 60.0679 74.322C59.8426 73.7413 59.7299 73.1043 59.7299 72.411C59.7299 71.735 59.8512 71.111 60.0939 70.539C60.3366 69.967 60.6702 69.473 61.0949 69.057C61.5282 68.6323 62.0352 68.303 62.6159 68.069C63.2052 67.835 63.8466 67.718 64.5399 67.718C64.9732 67.718 65.3979 67.7743 65.8139 67.887C66.2299 67.9997 66.6156 68.1687 66.9709 68.394C67.3349 68.6107 67.6469 68.8707 67.9069 69.174L66.5549 70.721C66.3729 70.5303 66.1779 70.3657 65.9699 70.227C65.7706 70.0797 65.5496 69.967 65.3069 69.889C65.0642 69.811 64.8042 69.772 64.5269 69.772C64.1802 69.772 63.8509 69.837 63.5389 69.967C63.2356 70.0883 62.9669 70.266 62.7329 70.5C62.5076 70.7253 62.3299 71.0027 62.1999 71.332C62.0699 71.6613 62.0049 72.0297 62.0049 72.437C62.0049 72.8357 62.0699 73.1997 62.1999 73.529C62.3299 73.8497 62.5119 74.127 62.7459 74.361C62.9799 74.595 63.2616 74.7727 63.5909 74.894C63.9289 75.0153 64.3016 75.076 64.7089 75.076C64.9862 75.076 65.2506 75.037 65.5019 74.959C65.7532 74.881 65.9829 74.777 66.1909 74.647C66.4076 74.5083 66.5982 74.3523 66.7629 74.179L67.8289 75.869C67.6122 76.1117 67.3219 76.3283 66.9579 76.519C66.6026 76.7097 66.2039 76.8613 65.7619 76.974C65.3286 77.078 64.8909 77.13 64.4489 77.13ZM71.6683 77.117C71.0876 77.117 70.5676 76.9653 70.1083 76.662C69.6576 76.35 69.2979 75.9253 69.0293 75.388C68.7606 74.842 68.6263 74.2267 68.6263 73.542C68.6263 72.84 68.7606 72.2203 69.0293 71.683C69.2979 71.1457 69.6663 70.7253 70.1343 70.422C70.6023 70.11 71.1353 69.954 71.7333 69.954C72.0626 69.954 72.3616 70.0017 72.6303 70.097C72.9076 70.1923 73.1503 70.3267 73.3583 70.5C73.5663 70.6647 73.7439 70.8597 73.8913 71.085C74.0386 71.3017 74.1469 71.5357 74.2163 71.787L73.7873 71.735V70.097H75.8543V77H73.7483V75.336L74.2163 75.323C74.1469 75.5657 74.0343 75.7953 73.8783 76.012C73.7223 76.2287 73.5316 76.4193 73.3063 76.584C73.0809 76.7487 72.8296 76.8787 72.5523 76.974C72.2749 77.0693 71.9803 77.117 71.6683 77.117ZM72.2403 75.362C72.5609 75.362 72.8383 75.2883 73.0723 75.141C73.3063 74.9937 73.4883 74.7857 73.6183 74.517C73.7483 74.2397 73.8133 73.9147 73.8133 73.542C73.8133 73.1693 73.7483 72.8487 73.6183 72.58C73.4883 72.3027 73.3063 72.0903 73.0723 71.943C72.8383 71.787 72.5609 71.709 72.2403 71.709C71.9283 71.709 71.6553 71.787 71.4213 71.943C71.1959 72.0903 71.0183 72.3027 70.8883 72.58C70.7583 72.8487 70.6933 73.1693 70.6933 73.542C70.6933 73.9147 70.7583 74.2397 70.8883 74.517C71.0183 74.7857 71.1959 74.9937 71.4213 75.141C71.6553 75.2883 71.9283 75.362 72.2403 75.362ZM77.6896 77V70.097H79.6656L79.7566 72.346L79.3666 71.917C79.4706 71.5443 79.6396 71.2107 79.8736 70.916C80.1163 70.6213 80.3979 70.3873 80.7186 70.214C81.0393 70.0407 81.3816 69.954 81.7456 69.954C81.9016 69.954 82.0446 69.967 82.1746 69.993C82.3133 70.019 82.4389 70.0493 82.5516 70.084L81.9796 72.385C81.8843 72.3243 81.7543 72.2767 81.5896 72.242C81.4336 72.1987 81.2689 72.177 81.0956 72.177C80.9049 72.177 80.7273 72.2117 80.5626 72.281C80.3979 72.3417 80.2593 72.4327 80.1466 72.554C80.0339 72.6753 79.9429 72.8183 79.8736 72.983C79.8129 73.1477 79.7826 73.334 79.7826 73.542V77H77.6896ZM86.6026 77.13C85.84 77.13 85.177 76.9783 84.6136 76.675C84.0503 76.363 83.6126 75.9427 83.3006 75.414C82.9886 74.8767 82.8326 74.2657 82.8326 73.581C82.8326 73.0523 82.9193 72.567 83.0926 72.125C83.266 71.683 83.5086 71.3017 83.8206 70.981C84.1326 70.6517 84.501 70.4003 84.9256 70.227C85.359 70.045 85.8313 69.954 86.3426 69.954C86.828 69.954 87.27 70.0407 87.6686 70.214C88.076 70.3873 88.427 70.63 88.7216 70.942C89.0163 71.254 89.2416 71.6223 89.3976 72.047C89.5536 72.4717 89.623 72.9353 89.6056 73.438L89.5926 73.997H84.0936L83.7946 72.827H87.9026L87.6816 73.074V72.814C87.6643 72.5973 87.595 72.4067 87.4736 72.242C87.361 72.0687 87.2093 71.9343 87.0186 71.839C86.828 71.7437 86.6113 71.696 86.3686 71.696C86.0306 71.696 85.7403 71.7653 85.4976 71.904C85.2636 72.034 85.086 72.229 84.9646 72.489C84.8433 72.7403 84.7826 73.0523 84.7826 73.425C84.7826 73.8063 84.8606 74.14 85.0166 74.426C85.1813 74.7033 85.4153 74.92 85.7186 75.076C86.0306 75.232 86.399 75.31 86.8236 75.31C87.1183 75.31 87.3783 75.2667 87.6036 75.18C87.8376 75.0933 88.089 74.946 88.3576 74.738L89.3326 76.116C89.064 76.35 88.778 76.5407 88.4746 76.688C88.1713 76.8353 87.8593 76.9437 87.5386 77.013C87.2266 77.091 86.9146 77.13 86.6026 77.13Z" fill="white"/>
</svg>
